Coordinates
version=1
nRows=14
nColumns=33
inDegrees=yes

Units are S.I. units (second, meters, Newtons, ...)
Angles are in degrees.

endheader
time	ground_thorax_rot_x	ground_thorax_rot_y	ground_thorax_rot_z	ground_thorax_tx	ground_thorax_ty	ground_thorax_tz	clav_prot_r	clav_elev_r	scapula_abduction_r	scapula_elevation_r	scapula_upward_rot_r	scapula_winging_r	shoulder_elv_r	plane_of_elev_r	axial_rot_r	elbow_flexion_r	pro_sup_r	wrist_flex_r	wrist_dev_r	clav_prot_l	clav_elev_l	scapula_abduction_l	scapula_elevation_l	scapula_upward_rot_l	scapula_winging_l	shoulder_elv_l	plane_of_elev_l	axial_rot_l	elbow_flexion_l	pro_sup_l	wrist_flex_l	wrist_dev_l
      2.68000000	    -39.88001625	     -2.38317957	     -4.97249137	     -5.46102086	    801.75369928	      2.75141727	      3.93529888	    -45.00000000	     45.00000000	    -45.00000000	     -5.88984229	  -3327.33705918	  -1376.71055335	     30.18983379	     68.57644476	    734.81522057	     58.31356567	     18.43906966	      8.11430270	     14.87473250	     42.34446601	    -45.00000000	    -40.16343623	    -20.38566927	   2238.59443306	  -3341.93593337	    135.58805807	    179.99999979	    364.79533111	   -351.41949976	     14.57421118	    -16.97304550
      2.69000000	    -39.67732906	     -2.71970072	     -4.90548184	     -3.48210630	    800.05564528	      3.29792443	      4.22222502	    -45.00000000	     45.00000000	    -45.00000000	     -5.83761641	  -3327.13683322	  -1377.22890014	     29.25230615	     72.55913596	    729.96589275	      2.16189095	     16.99424283	     12.69233767	     14.19222276	     41.87056487	    -45.00000000	    -39.60875719	    -19.95506891	   2238.52201390	  -3341.83303456	    135.81088556	    179.99999979	    365.06535963	   -342.86668685	     13.54744954	    -17.92834162
      2.70000000	    -39.60237923	     -3.22664954	     -4.68042961	     -1.78335780	    798.63271353	      3.78563237	      4.42573064	    -45.00000000	     45.00000000	    -45.00000000	     -6.43589007	  -3327.01941912	  -1377.37246455	     29.22053697	     73.39840742	    729.90430215	      1.85424517	     16.85029008	     12.63914867	     14.36893893	     41.36103257	    -45.00000000	    -39.29297613	    -20.52392765	   2238.57614765	  -3341.66316899	    135.54256127	    179.99999979	    364.62172392	   -344.34589288	     13.65783027	    -17.54597481
      2.71000000	    -39.43009838	     -3.47022147	     -4.75074310	     -0.36630419	    797.45077960	      4.19987359	      4.40983049	    -45.00000000	     45.00000000	    -45.00000000	     -6.53267552	  -3326.85037764	  -1377.47174767	     29.10733704	     74.00969031	    729.74137381	      1.61437801	     16.70231220	     12.57681831	     14.33044325	     41.06129471	    -45.00000000	    -39.01057367	    -20.47394855	   2238.42230726	  -3341.73492792	    135.68527414	    179.99999979	    364.38737983	   -345.13921433	     13.64851271	    -17.32863510
      2.72000000	    -39.30420471	     -3.57331207	     -4.96517271	      0.74680437	    796.48492639	      4.52820373	      4.31264711	    -45.00000000	     45.00000000	    -45.00000000	     -6.42638032	  -3326.67683233	  -1377.55748072	     28.96313167	     74.47715435	    729.62779872	      1.46115162	     16.61125442	     12.58117280	     14.32668361	     40.99547194	    -45.00000000	    -38.89636344	    -20.31302176	   2238.28593560	  -3341.81520840	    135.76344567	    179.99999979	    364.21460587	   -345.58219102	     13.57138522	    -17.21652058
      2.73000000	    -39.18949220	     -3.68187378	     -5.17664641	      1.54290099	    795.70037861	      4.76564308	      4.21289934	    -45.00000000	     45.00000000	    -45.00000000	     -6.34022128	  -3326.52874158	  -1377.61268476	     28.82212872	     74.90018822	    729.55508030	      1.44053774	     16.54776769	     12.59684082	     14.30256381	     40.91424392	    -45.00000000	    -38.78464215	    -20.12603481	   2238.22351995	  -3341.87106728	    135.83577732	    179.99999979	    364.07702066	   -345.79589427	     13.45505011	    -17.15239593
      2.74000000	    -39.01843465	     -3.96621747	     -5.22966948	      2.00920936	    795.06364595	      4.91283256	      4.15621108	    -45.00000000	     45.00000000	    -45.00000000	     -6.48609024	  -3326.35471286	  -1377.50357386	     28.66535220	     75.33551717	    729.62540262	      1.56379973	     16.52530987	     12.65663863	     14.25405606	     40.78789620	    -45.00000000	    -38.46250486	    -19.99096803	   2238.30809690	  -3341.86592575	    136.02873433	    179.99936222	    364.07055358	   -345.88254506	     13.14865100	    -17.15882723
      2.75000000	    -38.99261834	     -3.90729400	     -5.53092246	      2.14178163	    794.53826812	      4.96930001	      4.20210905	    -45.00000000	     45.00000000	    -45.00000000	     -6.40614615	  -3326.52647100	  -1377.86709518	     28.76385192	     75.43997050	    729.34845830	      1.80095882	     16.46626386	     12.46109473	     14.17020677	     40.88375910	    -45.00000000	    -38.55706287	    -19.96493220	   2238.32180478	  -3341.75883239	    135.80334585	    179.99999979	    363.96522228	   -345.78808149	     13.21549306	    -17.15705923
      2.76000000	    -38.83098679	     -4.16184097	     -5.52194318	      1.94272870	    794.09184721	      4.93781538	      4.03952502	    -45.00000000	     45.00000000	    -45.00000000	     -6.53808006	  -3326.28313001	  -1377.57129152	     28.41293594	     75.73129356	    729.49372988	      2.23328462	     16.48028818	     12.61329440	     14.16677019	     40.82794058	    -45.00000000	    -38.30501678	    -19.67138220	   2238.36919347	  -3341.90761044	    136.09854772	    179.99700997	    363.89924234	   -345.70399805	     12.76321084	    -17.20052017
      2.77000000	    -38.82156166	     -4.04803973	     -5.90435705	      1.41404366	    793.69377872	      4.82310878	      4.18382196	    -45.00000000	     45.00000000	    -45.00000000	     -6.44890801	  -3326.67033417	  -1377.91601349	     28.77185594	     75.69839048	    729.34494034	      2.80620536	     16.50927665	     12.28943992	     14.05423360	     40.89496341	    -45.00000000	    -38.55488763	    -19.78761734	   2238.42653867	  -3341.77333053	    135.75976059	    179.99999979	    363.85043617	   -345.41447902	     13.03118050	    -17.23974786
      2.78000000	    -38.64440746	     -4.39763483	     -5.72857418	      0.56217404	    793.32734022	      4.63216715	      4.01175170	    -45.00000000	     45.00000000	    -45.00000000	     -6.68581960	  -3326.47671881	  -1377.61128576	     28.31305348	     75.98186028	    729.40945172	      3.58573495	     16.50635658	     12.38621898	     14.09764389	     40.81104633	    -45.00000000	    -38.19696805	    -19.53454189	   2238.65525158	  -3342.02915297	    136.15347847	    179.72504971	    363.82873728	   -345.25532349	     12.38358045	    -17.33835268
      2.79000000	    -38.58619957	     -4.30524394	     -5.98971328	     -0.60729476	    792.97817834	      4.37365950	      4.18566834	    -45.00000000	     45.00000000	    -45.00000000	     -6.78809142	  -3326.67553361	  -1377.72381941	     28.52577628	     76.02523827	    729.27300915	      4.61096276	     16.57698213	     12.15337864	     14.01198984	     40.97315405	    -45.00000000	    -38.48071313	    -19.81939135	   2238.50829759	  -3341.99193326	    135.97758630	    179.99999979	    363.88177992	   -344.87593678	     12.67949868	    -17.40749064
      2.80000000	    -38.41850208	     -4.43181875	     -6.05037238	     -2.08301832	    792.63812283	      4.05881934	      4.17106806	    -45.00000000	     45.00000000	    -45.00000000	     -6.94152118	  -3327.05250630	  -1377.81353532	     28.64774020	     76.16680772	    729.29697038	      5.60121057	     16.58370977	     11.90838449	     14.11253243	     40.72309456	    -45.00000000	    -38.22904510	    -19.81899931	   2238.90611297	  -3341.96933186	    135.79132052	    179.64400817	    363.74700133	   -344.63100056	     12.32744877	    -17.50275131
      2.81000000	    -38.42103931	     -4.57490218	     -6.02186922	     -3.86429050	    792.30029221	      3.69762262	      4.24702112	    -45.00000000	     45.00000000	    -45.00000000	     -7.21375492	  -3327.05710726	  -1377.69614335	     28.39677538	     76.54760180	    729.40151632	      6.68630324	     16.73297484	     11.86203044	     13.90761238	     40.93342443	    -45.00000000	    -38.35771905	    -19.88142125	   2238.84594898	  -3342.05148408	    136.22167875	    179.31710888	    364.03450422	   -344.39077220	     12.48973944	    -17.61249742
